<svg width="67" height="58" xmlns="http://www.w3.org/2000/svg" xmlns:xlink="http://www.w3.org/1999/xlink">
  <symbol id="phone" viewBox="0 0 24 24">
    <path
      d="M23.9481 18.5956C23.8802 18.3911 23.4483 18.0898 22.6528 17.6924C22.4372 17.5671 22.1301 17.3969 21.7328 17.181C21.335 16.965 20.974 16.7661 20.6504 16.5842C20.3261 16.4024 20.0222 16.2263 19.7384 16.0561C19.693 16.022 19.551 15.9227 19.3123 15.7576C19.0735 15.5929 18.872 15.4707 18.707 15.391C18.5422 15.3118 18.3802 15.2719 18.2211 15.2719C17.9939 15.2719 17.7101 15.4339 17.3693 15.7576C17.0285 16.0816 16.7159 16.4336 16.432 16.8147C16.148 17.1955 15.8468 17.5475 15.5289 17.8714C15.2106 18.1954 14.949 18.3572 14.7447 18.3572C14.6422 18.3572 14.5143 18.3286 14.361 18.2722C14.2078 18.2154 14.0913 18.1668 14.0113 18.1276C13.932 18.0875 13.7959 18.0082 13.6026 17.8885C13.409 17.7692 13.3013 17.7038 13.2786 17.6924C11.7218 16.8286 10.3867 15.8399 9.273 14.7266C8.15962 13.6127 7.17084 12.2777 6.30725 10.7208C6.29591 10.6981 6.23042 10.5901 6.11119 10.397C5.99179 10.2038 5.91221 10.0676 5.87245 9.98781C5.83268 9.90835 5.78439 9.79181 5.72767 9.63844C5.67095 9.48506 5.64248 9.3573 5.64248 9.25491C5.64248 9.05049 5.80445 8.789 6.12833 8.47079C6.45215 8.15276 6.80451 7.8515 7.18505 7.56762C7.56589 7.28374 7.91789 6.97114 8.24183 6.63036C8.56565 6.2894 8.72756 6.00546 8.72756 5.77824C8.72756 5.61925 8.6878 5.45716 8.60834 5.29244C8.52882 5.12737 8.40667 4.92594 8.24183 4.68719C8.07693 4.44856 7.97753 4.30665 7.94338 4.26098C7.77311 3.97709 7.59717 3.67315 7.41514 3.34927C7.23311 3.02545 7.03442 2.66449 6.81842 2.26682C6.6026 1.86932 6.43227 1.5624 6.30713 1.34651C5.90964 0.551227 5.60856 0.119224 5.40397 0.0512838C5.32438 0.0171941 5.20498 0 5.04605 0C4.73907 0 4.33859 0.0567167 3.84432 0.170508C3.34987 0.284121 2.96079 0.403286 2.67667 0.52848C2.10849 0.766989 1.50628 1.46013 0.869857 2.60766C0.290332 3.6756 0.000598907 4.73262 0.000598907 5.77794C0.000598907 6.08451 0.0204796 6.38278 0.060241 6.67281C0.100002 6.96254 0.171047 7.28929 0.273436 7.65299C0.375645 8.01658 0.458093 8.28667 0.520422 8.46255C0.58281 8.63855 0.699289 8.95384 0.869797 9.40852C1.04007 9.86309 1.14245 10.1414 1.17654 10.2436C1.57422 11.3573 2.0458 12.3515 2.59118 13.2266C3.4885 14.681 4.71304 16.1841 6.26409 17.7353C7.8152 19.2864 9.31802 20.5108 10.7726 21.4085C11.6475 21.9538 12.6421 22.4254 13.7556 22.8233C13.8579 22.8573 14.1362 22.9594 14.5906 23.1303C15.0451 23.3007 15.3605 23.4171 15.5365 23.4796C15.7126 23.5422 15.9828 23.6247 16.346 23.7271C16.7101 23.8295 17.0366 23.9005 17.3263 23.9406C17.6162 23.9798 17.9145 24.0001 18.2212 24.0001C19.2664 24.0001 20.3235 23.7101 21.3916 23.1307C22.539 22.4945 23.232 21.8922 23.4706 21.3236C23.5961 21.0397 23.715 20.6506 23.8286 20.1561C23.9426 19.6619 23.9992 19.2615 23.9992 18.9545C23.9995 18.795 23.9824 18.6759 23.9481 18.5956Z" />
  </symbol>
  <symbol id="battery" viewBox="0 0 60 60">
    <path
      d="M42.536 4H36V0H24V4H17.464C15.554 4 14 5.554 14 7.464V56.536C14 58.446 15.554 60 17.464 60H42.536C44.446 60 46 58.446 46 56.536V7.464C46 5.554 44.446 4 42.536 4ZM16 19H44V31H16V19ZM16 33H44V45H16V33ZM26 2H34V4H26V2ZM17.464 6H24H36H42.536C43.344 6 44 6.656 44 7.464V17H16V7.464C16 6.656 16.656 6 17.464 6ZM42.536 58H17.464C16.656 58 16 57.344 16 56.536V47H44V56.536C44 57.344 43.344 58 42.536 58Z" />
  </symbol>
  <symbol id="sound" viewBox="0 0 53 47">
    <path
      d="M28.404 0.413002C27.428 -0.138998 26.273 -0.120998 25.314 0.457002C25.268 0.484002 25.224 0.516002 25.184 0.550002L11.634 12.013H1C0.447 12.013 0 12.46 0 13.013V32.013C0 32.279 0.105 32.533 0.293 32.72C0.481 32.907 0.734 33.013 1 33.013L11.61 33.008L25.153 45.448C25.203 45.494 25.257 45.534 25.314 45.568C25.806 45.865 26.351 46.014 26.896 46.014C27.413 46.013 27.929 45.88 28.404 45.612C29.403 45.048 30 44.018 30 42.857V3.169C30 2.008 29.403 0.978002 28.404 0.413002ZM28 42.857C28 43.288 27.783 43.667 27.421 43.872C27.266 43.959 26.873 44.127 26.421 43.898L13 31.569V27.013C13 26.46 12.553 26.013 12 26.013C11.447 26.013 11 26.46 11 27.013V31.009L2 31.013V14.013H11V18.013C11 18.566 11.447 19.013 12 19.013C12.553 19.013 13 18.566 13 18.013V13.477L26.405 2.137C26.866 1.895 27.265 2.067 27.421 2.155C27.783 2.36 28 2.739 28 3.169V42.857Z" />
    <path
      d="M38.797 4.066C38.274 3.889 37.706 4.169 37.528 4.692C37.351 5.214 37.631 5.783 38.154 5.961C45.255 8.372 50.026 15.024 50.026 22.514C50.026 29.997 45.264 36.65 38.177 39.068C37.655 39.246 37.375 39.814 37.554 40.338C37.696 40.753 38.084 41.015 38.5 41.015C38.607 41.015 38.716 40.998 38.823 40.961C46.719 38.268 52.025 30.855 52.025 22.515C52.026 14.166 46.71 6.753 38.797 4.066Z" />
    <path
      d="M43.026 22.513C43.026 16.541 39.017 11.211 33.277 9.55101C32.744 9.40001 32.193 9.70301 32.039 10.235C31.886 10.765 32.191 11.32 32.723 11.473C37.612 12.886 41.027 17.426 41.027 22.513C41.027 27.6 37.612 32.14 32.723 33.553C32.192 33.706 31.886 34.261 32.039 34.791C32.166 35.229 32.565 35.514 33 35.514C33.092 35.514 33.185 35.501 33.277 35.475C39.018 33.815 43.026 28.485 43.026 22.513Z" />
  </symbol>
  <symbol id="time" viewBox="0 0 60 60">
    <path
      d="M31.634 37.989C32.675 37.908 33.624 37.377 34.24 36.53L43.603 23.586C43.89 23.189 43.847 22.641 43.499 22.293C43.151 21.946 42.603 21.903 42.206 22.189L29.26 31.555C28.416 32.169 27.885 33.118 27.804 34.159C27.723 35.2 28.1 36.219 28.837 36.956C29.508 37.628 30.413 38 31.354 38C31.447 38 31.54 37.996 31.634 37.989ZM29.798 34.315C29.833 33.858 30.067 33.441 30.435 33.173L38.332 27.46L32.621 35.355C32.351 35.726 31.934 35.959 31.477 35.995C31.022 36.025 30.575 35.867 30.25 35.542C29.928 35.219 29.762 34.771 29.798 34.315Z" />
    <path
      d="M54.034 19.564C54.024 19.543 54.024 19.521 54.013 19.5C54.001 19.48 53.982 19.469 53.969 19.45C52.958 17.716 51.762 16.103 50.404 14.641L52.552 12.494L53.966 13.908L58.208 9.665L53.966 5.423L49.723 9.665L51.138 11.08L48.99 13.227C47.528 11.869 45.916 10.672 44.181 9.661C44.162 9.648 44.151 9.629 44.131 9.617C44.11 9.605 44.088 9.606 44.067 9.595C40.974 7.813 37.499 6.626 33.794 6.191V5H35.294C36.673 5 37.794 3.879 37.794 2.5C37.794 1.121 36.672 0 35.293 0H26.293C24.914 0 23.793 1.121 23.793 2.5C23.793 3.879 24.914 5 26.293 5H27.793V6.156C26.713 6.271 25.635 6.447 24.569 6.691C24.031 6.814 23.694 7.351 23.818 7.889C23.941 8.427 24.478 8.765 25.016 8.64C25.936 8.429 26.865 8.27 27.796 8.163L28.869 8.08C29.197 8.055 29.499 8.037 29.793 8.023V10C29.793 10.553 30.24 11 30.793 11C31.346 11 31.793 10.553 31.793 10V8.03C35.554 8.203 39.098 9.213 42.249 10.875L41.263 12.582C40.987 13.061 41.151 13.672 41.629 13.948C41.786 14.039 41.958 14.082 42.128 14.082C42.474 14.082 42.81 13.903 42.995 13.582L43.978 11.879C47.107 13.864 49.765 16.522 51.75 19.651L50.047 20.634C49.57 20.91 49.406 21.521 49.683 22C49.869 22.321 50.204 22.5 50.55 22.5C50.72 22.5 50.892 22.457 51.049 22.366L52.756 21.38C54.441 24.576 55.454 28.178 55.605 31.999H53.63C53.077 31.999 52.63 32.446 52.63 32.999C52.63 33.552 53.077 33.999 53.63 33.999H55.605C55.454 37.82 54.441 41.422 52.756 44.618L51.049 43.632C50.571 43.356 49.959 43.518 49.683 43.998C49.407 44.477 49.571 45.088 50.049 45.364L51.752 46.347C49.767 49.476 47.109 52.134 43.98 54.119L42.997 52.416C42.72 51.936 42.107 51.773 41.631 52.05C41.152 52.326 40.988 52.938 41.265 53.416L42.251 55.123C39.1 56.785 35.556 57.795 31.795 57.968V56C31.795 55.447 31.348 55 30.795 55C30.242 55 29.795 55.447 29.795 56V57.976C28.198 57.921 26.596 57.721 25.019 57.359C24.481 57.23 23.944 57.572 23.821 58.11C23.697 58.648 24.034 59.185 24.572 59.308C26.568 59.768 28.607 60 30.63 60C30.679 60 30.726 59.997 30.775 59.996C30.782 59.996 30.787 60 30.793 60C30.801 60 30.808 59.995 30.816 59.995C35.623 59.962 40.133 58.664 44.035 56.422C44.066 56.408 44.099 56.401 44.129 56.383C44.149 56.371 44.16 56.352 44.179 56.339C48.218 53.985 51.593 50.614 53.952 46.578C53.971 46.551 53.995 46.53 54.012 46.5C54.024 46.479 54.023 46.457 54.033 46.436C56.317 42.476 57.63 37.89 57.63 33C57.63 28.11 56.317 23.524 54.034 19.564ZM53.965 8.251L55.379 9.665L53.965 11.08L52.55 9.665L53.965 8.251ZM29.793 6.021V3H26.293C26.018 3 25.793 2.775 25.793 2.5C25.793 2.225 26.018 2 26.293 2H35.293C35.568 2 35.793 2.225 35.793 2.5C35.793 2.775 35.568 3 35.293 3H31.793V6.021C31.445 6.007 31.113 6 30.793 6C30.765 6 30.733 6.002 30.705 6.002C30.68 6.002 30.655 6 30.63 6C30.466 6 30.302 6.011 30.138 6.014C30.022 6.017 29.913 6.016 29.793 6.021Z" />
    <path
      d="M21.793 14H16.793C16.24 14 15.793 14.447 15.793 15C15.793 15.553 16.24 16 16.793 16H21.793C22.346 16 22.793 15.553 22.793 15C22.793 14.447 22.346 14 21.793 14Z" />
    <path
      d="M21.793 21H11.793C11.24 21 10.793 21.447 10.793 22C10.793 22.553 11.24 23 11.793 23H21.793C22.346 23 22.793 22.553 22.793 22C22.793 21.447 22.346 21 21.793 21Z" />
    <path
      d="M21.793 28H6.793C6.24 28 5.793 28.447 5.793 29C5.793 29.553 6.24 30 6.793 30H21.793C22.346 30 22.793 29.553 22.793 29C22.793 28.447 22.346 28 21.793 28Z" />
    <path
      d="M21.793 35H2.793C2.24 35 1.793 35.447 1.793 36C1.793 36.553 2.24 37 2.793 37H21.793C22.346 37 22.793 36.553 22.793 36C22.793 35.447 22.346 35 21.793 35Z" />
    <path
      d="M21.793 42H8.793C8.24 42 7.793 42.447 7.793 43C7.793 43.553 8.24 44 8.793 44H21.793C22.346 44 22.793 43.553 22.793 43C22.793 42.447 22.346 42 21.793 42Z" />
    <path
      d="M21.793 49H14.793C14.24 49 13.793 49.447 13.793 50C13.793 50.553 14.24 51 14.793 51H21.793C22.346 51 22.793 50.553 22.793 50C22.793 49.447 22.346 49 21.793 49Z" />
  </symbol>
  <symbol id="noise" viewBox="0 0 50 50">
    <path
      d="M14.9708 0C6.71605 0 0 7.27579 0 16.2591C0.0317662 18.342 0.602868 20.3811 1.6576 22.1775C2.15599 23.0277 2.58274 23.918 2.93344 24.839C3.16602 25.5159 2.94278 26.2658 2.37786 26.7053C1.39499 27.4911 0.825441 28.6832 0.831709 29.9415C0.827764 31.3243 1.51136 32.6185 2.65565 33.3948C3.06703 33.6743 3.31726 34.1359 3.32684 34.6332V41.5854C3.32684 46.1715 6.68444 49.9025 10.8122 49.9025C14.94 49.9025 18.2976 46.1715 18.2976 41.5854C18.285 38.1601 19.7745 34.9014 22.373 32.6695C27.2442 28.6051 30.0244 22.5619 29.9415 16.2183C29.9415 7.27579 23.2255 0 14.9708 0ZM21.2917 31.4062C18.3233 33.9534 16.621 37.674 16.6342 41.5854C16.6342 45.2541 14.0218 48.2391 10.8122 48.2391C7.60265 48.2391 4.99025 45.2541 4.99025 41.5854V34.6332C4.97678 33.6031 4.47131 32.6417 3.63041 32.0466C2.91983 31.5825 2.49254 30.7902 2.49513 29.9415C2.48942 29.1765 2.83983 28.4523 3.44327 27.982C4.55062 27.0949 4.97343 25.603 4.49622 24.2668C4.11317 23.2593 3.64662 22.2856 3.10144 21.3558C2.18489 19.7969 1.68934 18.0265 1.66342 16.2183C1.66342 8.19316 7.63342 1.66342 14.9708 1.66342C22.3081 1.66342 28.2781 8.19316 28.2781 16.2183C28.3542 22.0745 25.788 27.6533 21.2917 31.4062Z" />
    <path
      d="M14.9707 4.15854C10.3356 4.15854 6.38335 7.44545 4.84885 12.0398C4.83803 12.0673 4.83055 12.0939 4.82223 12.123C4.38372 13.4571 4.15915 14.8522 4.15686 16.2566C4.15686 17.2546 4.15686 20.307 6.06397 22.2141C6.39032 22.5293 6.90906 22.5248 7.22988 22.204C7.5507 21.8832 7.5552 21.3644 7.24001 21.0381C6.55671 20.2785 6.11793 19.3308 5.9808 18.3184C6.11471 18.3101 6.24695 18.2993 6.38584 18.2993C10.2034 18.2976 13.3073 21.7908 13.3073 26.0824C13.3073 26.4808 13.2882 26.855 13.2574 27.2243C12.8433 27.6664 12.4028 28.0831 11.9383 28.4719C9.51592 30.4557 8.17332 33.4674 8.31707 36.5952C8.31707 37.0545 8.68944 37.4269 9.14878 37.4269C9.60812 37.4269 9.98049 37.0545 9.98049 36.5952C9.8374 33.958 10.9646 31.4116 13.0129 29.7444C15.9473 27.4922 17.6072 23.9568 17.4659 20.2604C17.4659 15.0539 13.5485 10.8122 8.73293 10.8122C8.17973 10.8137 7.62816 10.8722 7.08697 10.9869C8.53264 7.91802 11.5799 5.92167 14.9707 5.82196C20.0151 5.82196 24.1195 10.502 24.1195 16.2549C24.1849 20.787 22.2194 25.1106 18.7617 28.0411C18.6469 28.14 18.5196 28.2465 18.3816 28.3621C16.7265 29.7377 13.284 32.6038 12.4806 39.8305C12.432 40.2859 12.7607 40.6949 13.2158 40.7454C13.2462 40.7498 13.2767 40.7526 13.3073 40.7537C13.731 40.7533 14.0866 40.4346 14.1332 40.0135C14.8626 33.4513 17.8426 30.972 19.4445 29.6404C19.5917 29.5173 19.7273 29.4042 19.8487 29.2994C23.6768 26.0566 25.8537 21.2714 25.783 16.2549C25.783 9.58461 20.9324 4.15854 14.9707 4.15854ZM8.73293 12.4756C12.6311 12.4756 15.8025 15.9688 15.8025 20.2604C15.8402 21.8342 15.5277 23.3966 14.8876 24.8348C14.3295 20.2105 10.7349 16.6342 6.38751 16.6342C6.19538 16.6342 6.01074 16.6483 5.82527 16.6616C5.82527 16.5019 5.82527 16.363 5.82527 16.2549C5.82557 15.1427 5.98465 14.0361 6.29768 12.9688C7.0689 12.6452 7.89657 12.4776 8.73293 12.4756Z" />
    <path
      d="M41.5854 19.1293C41.6492 16.508 42.7609 14.0216 44.6719 12.2261C44.904 12.02 45.002 11.7017 44.926 11.4007C44.8501 11.0997 44.6128 10.8661 44.3106 10.7948C44.0084 10.7235 43.6917 10.8264 43.4892 11.0617C41.268 13.1648 39.983 16.071 39.922 19.1293C39.983 22.1876 41.268 25.0937 43.4892 27.1969C43.6917 27.4322 44.0084 27.5351 44.3106 27.4638C44.6128 27.3925 44.8501 27.1589 44.926 26.8579C45.002 26.5569 44.904 26.2386 44.6719 26.0325C42.7609 24.237 41.6492 21.7506 41.5854 19.1293Z" />
    <path
      d="M47.1288 14.3495C46.964 14.2028 46.7477 14.1275 46.5275 14.1403C46.3072 14.1531 46.1011 14.2529 45.9544 14.4177C43.4561 17.062 43.4561 21.1966 45.9544 23.8409C46.152 24.0629 46.453 24.1626 46.744 24.1024C47.0351 24.0423 47.2719 23.8315 47.3653 23.5494C47.4587 23.2673 47.3946 22.9567 47.197 22.7348C45.2597 20.7215 45.2597 17.5371 47.197 15.5239C47.3437 15.3591 47.4189 15.1428 47.4061 14.9225C47.3933 14.7023 47.2936 14.4962 47.1288 14.3495Z" />
    <path
      d="M49.6887 16.9095C49.3814 16.5683 48.8557 16.5407 48.5144 16.8479C47.8154 17.3986 47.4074 18.2394 47.4074 19.1293C47.4074 20.0192 47.8154 20.86 48.5144 21.4107C48.7341 21.6165 49.0479 21.6875 49.3348 21.5964C49.6217 21.5052 49.837 21.2662 49.8976 20.9713C49.9583 20.6764 49.8548 20.3717 49.6272 20.1748C49.3047 19.9185 49.1032 19.5399 49.0708 19.1293C49.1032 18.7187 49.3047 18.3401 49.6272 18.0838C49.9684 17.7765 49.9959 17.2508 49.6887 16.9095Z" />
    <path
      d="M37.4269 19.1293C37.4269 15.4698 39.0662 11.9334 42.1676 8.91259C42.3804 8.70459 42.466 8.39889 42.3923 8.11064C42.3185 7.82239 42.0966 7.59539 41.8101 7.51514C41.5236 7.43489 41.216 7.51358 41.0032 7.72158C37.5766 11.0617 35.7635 15.0065 35.7635 19.1293C35.7635 23.2521 37.5766 27.1969 41.0032 30.537C41.3321 30.8586 41.8594 30.8526 42.1809 30.5237C42.5025 30.1948 42.4965 29.6676 42.1676 29.346C39.0662 26.3253 37.4269 22.7888 37.4269 19.1293Z" />
    <path
      d="M33.2684 19.1293C33.2684 14.5599 35.1996 10.1585 38.855 6.40416C39.063 6.19111 39.1415 5.88328 39.061 5.59662C38.9805 5.30997 38.7532 5.08804 38.4647 5.01443C38.1762 4.94082 37.8703 5.02672 37.6623 5.23977C33.7 9.31514 31.6049 14.1183 31.6049 19.1293C31.6049 24.1403 33.7 28.9435 37.6623 33.0188C37.9839 33.3482 38.5115 33.3545 38.8408 33.033C39.1702 32.7114 39.1765 32.1838 38.855 31.8544C35.1996 28.1001 33.2684 23.6987 33.2684 19.1293Z" />
  </symbol>
  <symbol id="charging" viewBox="0 0 48 48">
    <path
      d="M32.2832 3.99995H15.7168C13.8879 3.99995 12.4001 5.48777 12.4001 7.31671V44.6831C12.4001 46.5121 13.8879 47.9999 15.7168 47.9999H32.2833C34.1122 47.9999 35.6 46.5121 35.6 44.6831V7.31683C35.6 5.48777 34.1122 3.99995 32.2832 3.99995ZM34 44.6832C34 45.6296 33.2296 46.4 32.2832 46.4H15.7168C14.7704 46.4 14 45.6296 14 44.6832V7.31683C14 6.37042 14.7704 5.60003 15.7168 5.60003H32.2833C33.2297 5.60003 34.0001 6.37042 34.0001 7.31683V44.6832H34Z" />
    <path
      d="M28.4 0H19.6001C19.1583 0 18.8 0.358242 18.8 0.800039V4.8C18.8 5.2418 19.1583 5.60004 19.6001 5.60004H28.4C28.8418 5.60004 29.2001 5.2418 29.2001 4.8V0.800039C29.2 0.358242 28.8418 0 28.4 0ZM27.6 3.99996H20.4V1.59996H27.6V3.99996Z" />
    <path
      d="M29.8746 21.9702C29.7278 21.7392 29.4734 21.5998 29.2 21.5998H24.4V14.3998C24.4 14.0248 24.1393 13.7002 23.7734 13.619C23.404 13.5381 23.0336 13.7217 22.875 14.0616L17.275 26.0616C17.1594 26.3092 17.1785 26.5992 17.3254 26.8296C17.4722 27.0606 17.7266 27.2 18 27.2H22.8V34.4C22.8 34.775 23.0606 35.0996 23.4266 35.1808C23.4848 35.1939 23.543 35.2001 23.6004 35.2001C23.9058 35.2001 24.1914 35.0243 24.325 34.7382L29.925 22.7382C30.0406 22.4906 30.0215 22.2006 29.8746 21.9702ZM22.8 25.6H19.2563L22.8 18.0057V25.6ZM24.4 30.7942V23.2H27.9437L24.4 30.7942Z" />
  </symbol>
  <symbol id="plug" viewBox="0 0 28 48">
    <path
      d="M26.8 10.4H24.4V2.4C24.4 1.03997 23.36 0 22 0C20.6399 0 19.6 1.03997 19.6 2.4V10.4H8.40003V2.4C8.40003 1.03997 7.36006 0 6.00003 0C4.64 0 3.60003 1.03997 3.60003 2.4V10.4H1.20003C0.720032 10.4 0.400063 10.7199 0.400063 11.1999V17.2799C0.400063 21.2799 1.92003 25.1199 4.64009 28.0799C7.0401 30.7999 8.40013 34.3199 8.40013 37.9199V39.9999C8.40013 42.2399 10.1601 44 12.4002 44H13.2001V47.1999C13.2001 47.6799 13.5201 47.9999 14.0001 47.9999C14.4801 47.9999 14.8001 47.6799 14.8001 47.1999V44H15.6C17.84 44 19.6001 42.24 19.6001 39.9999V38C19.6001 34.32 20.88 30.8799 23.3601 28.16C26.0801 25.2 27.6001 21.2799 27.6001 17.28V11.2C27.6 10.72 27.28 10.4 26.8 10.4ZM21.2 2.4C21.2 1.92 21.52 1.60003 22 1.60003C22.48 1.60003 22.7999 1.92 22.7999 2.4V10.4H21.2V2.4ZM5.19997 2.4C5.19997 1.99997 5.51994 1.60003 5.99994 1.60003C6.47994 1.60003 6.79991 1.92 6.79991 2.4V10.4H5.19988V2.4H5.19997ZM26 17.2C26 20.88 24.72 24.3201 22.24 27.04C19.52 30 18 33.92 18 37.92V40C18 41.3601 16.9601 42.4 15.6 42.4H12.4001C11.04 42.4 10.0001 41.3601 10.0001 40V38.0001C10.0001 34 8.4801 30.0801 5.76003 27.1201C3.36003 24.4 2 20.88 2 17.28V12H4.4H7.59997H20.3999H23.6H26V17.2Z" />
    <path
      d="M17.2 20.8H12.7199L16.96 16.56C17.2799 16.24 17.2799 15.76 16.96 15.44C16.64 15.1199 16.16 15.12 15.8399 15.44L10.24 21.0399C9.99997 21.2799 9.92 21.5999 10.0799 21.92C10.1599 22.2399 10.48 22.4 10.7999 22.4H15.28L11.0399 26.64C10.72 26.96 10.72 27.44 11.0399 27.76C11.2 27.9201 11.3599 28 11.5999 28C11.8399 28 11.9999 27.9201 12.1599 27.76L17.7599 22.1601C17.9999 21.9201 18.0798 21.6001 17.9199 21.28C17.84 20.96 17.52 20.8 17.2 20.8Z" />
  </symbol>
  <symbol id="logo" viewBox="0 0 40 40">
    <path
      d="M20 26C23.3 26 26 23.3 26 20C26 16.7 23.3 14 20 14C16.7 14 14 16.7 14 20C14 23.3 16.7 26 20 26ZM20 0C18 0 15.9 0.3 14 0.9V12C18.4 8.7 24.7 9.6 28 14C31.3 18.4 30.4 24.7 26 28C21.6 31.3 15.3 30.4 12 26C10.7 24.3 9.99999 22.2 9.99999 20V2.7C0.399989 8.2 -2.80001 20.4 2.69999 30C8.19999 39.6 20.4 42.8 30 37.3C39.6 31.8 42.8 19.6 37.3 10C33.8 3.8 27.2 0 20 0Z" />
  </symbol>
  <symbol id="circles" viewBox="0 0 67 21">
    <path fill-rule="evenodd" clip-rule="evenodd"
      d="M33.4998 -0.000976562C39.2989 -0.000976562 43.9998 4.70002 43.9998 10.4991C43.9998 16.2982 39.2989 20.9992 33.4998 20.9992C27.7009 20.9992 22.9999 16.2982 22.9999 10.4991C22.9999 4.70002 27.7009 -0.000976562 33.4998 -0.000976562ZM60.4999 3.99937C64.0897 3.99937 66.9999 6.90937 66.9999 10.4991C66.9999 14.0893 64.0897 16.9996 60.4999 16.9996C56.91 16.9996 53.9998 14.0893 53.9998 10.4991C53.9998 6.90937 56.91 3.99937 60.4999 3.99937ZM12.9999 10.4991C12.9999 6.90937 10.0897 3.99937 6.49994 3.99937C2.90999 3.99937 -0.00012207 6.90937 -0.00012207 10.4991C-0.00012207 14.0893 2.90999 16.9996 6.49994 16.9996C10.0897 16.9996 12.9999 14.0893 12.9999 10.4991Z"
      fill="#DADADA" />
  </symbol>
  <symbol id="fb" viewBox="0 0 24 24">
    <path
      d="M13.9359 23.8453C13.8375 23.8594 13.7344 23.8781 13.6359 23.8922C13.7344 23.8735 13.8328 23.8594 13.9359 23.8453Z" />
    <path
      d="M14.175 23.8031C14.1281 23.8125 14.0812 23.8219 14.0297 23.8265C14.0812 23.8219 14.1281 23.8125 14.175 23.8031Z" />
    <path
      d="M13.3641 23.9203C13.2469 23.9344 13.1297 23.9437 13.0125 23.9531C13.1297 23.9484 13.2469 23.9344 13.3641 23.9203Z" />
    <path
      d="M13.5984 23.8922C13.5422 23.9016 13.4859 23.9063 13.4297 23.911C13.4813 23.9063 13.5422 23.9016 13.5984 23.8922Z" />
    <path
      d="M14.5031 23.7375C14.4609 23.7469 14.4188 23.7562 14.3766 23.7656C14.4188 23.7562 14.4609 23.7469 14.5031 23.7375Z" />
    <path
      d="M15.3141 23.5359C15.2813 23.5453 15.2437 23.5547 15.2109 23.5641C15.2437 23.5547 15.2766 23.5453 15.3141 23.5359Z" />
    <path
      d="M15.0656 23.6016C15.0281 23.6109 14.9906 23.6203 14.9531 23.6297C14.9953 23.625 15.0281 23.6156 15.0656 23.6016Z" />
    <path
      d="M14.7469 23.6859C14.7094 23.6953 14.6672 23.7047 14.6297 23.714C14.6672 23.7 14.7094 23.6906 14.7469 23.6859Z" />
    <path
      d="M13.0078 23.9578C12.9469 23.9625 12.8812 23.9672 12.8203 23.9719C12.8812 23.9672 12.9469 23.9625 13.0078 23.9578Z" />
    <path
      d="M24 12C24 5.37188 18.6281 0 12 0C5.37188 0 0 5.37188 0 12C0 18.6281 5.37188 24 12 24C12.0703 24 12.1406 24 12.2109 23.9953V14.6578H9.63281V11.6531H12.2109V9.44062C12.2109 6.87656 13.7766 5.47969 16.0641 5.47969C17.1609 5.47969 18.1031 5.55938 18.375 5.59688V8.27813H16.8C15.5578 8.27813 15.3141 8.86875 15.3141 9.73594V11.6484H18.2906L17.9016 14.6531H15.3141V23.5359C20.3297 22.0969 24 17.4797 24 12Z" />
    <path
      d="M12.7922 23.9719C12.6656 23.9812 12.5437 23.9859 12.4172 23.9906C12.5437 23.9859 12.6656 23.9812 12.7922 23.9719Z" />
    <path
      d="M12.4125 23.9906C12.3469 23.9906 12.2813 23.9953 12.2156 23.9953C12.2766 23.9953 12.3422 23.9953 12.4125 23.9906Z" />
  </symbol>
  <symbol id="insta" viewBox="0 0 24 24">
    <path
      d="M14.2969 12C14.2969 13.2703 13.2703 14.2969 12 14.2969C10.7297 14.2969 9.70312 13.2703 9.70312 12C9.70312 10.7297 10.7297 9.70312 12 9.70312C13.2703 9.70312 14.2969 10.7297 14.2969 12Z" />
    <path
      d="M17.3719 7.93593C17.2594 7.63593 17.0859 7.36405 16.8563 7.14374C16.6359 6.91405 16.3641 6.74061 16.0641 6.62811C15.8203 6.53436 15.4547 6.42186 14.7844 6.38905C14.0578 6.35624 13.8375 6.34686 12 6.34686C10.1578 6.34686 9.94219 6.35155 9.21563 6.38905C8.54531 6.42186 8.17969 6.53436 7.93594 6.62811C7.63594 6.74061 7.36406 6.91405 7.14375 7.14374C6.91406 7.36405 6.74062 7.63593 6.62812 7.93593C6.53437 8.17968 6.42187 8.5453 6.38906 9.21561C6.35625 9.94218 6.34687 10.1578 6.34687 12C6.34687 13.8375 6.35625 14.0578 6.38906 14.7844C6.42187 15.4547 6.52969 15.8203 6.62812 16.0641C6.74062 16.364 6.91406 16.6359 7.14375 16.8562C7.36406 17.0859 7.63594 17.2594 7.93594 17.3719C8.17969 17.4656 8.54531 17.5781 9.21563 17.6109C9.94219 17.6437 10.1578 17.6531 12 17.6531C13.8422 17.6531 14.0578 17.6484 14.7844 17.6109C15.4547 17.5781 15.8203 17.4703 16.0641 17.3719C16.6641 17.1422 17.1422 16.6641 17.3719 16.0641C17.4656 15.8203 17.5781 15.4547 17.6109 14.7844C17.6438 14.0578 17.6531 13.8375 17.6531 12C17.6531 10.1578 17.6484 9.94218 17.6109 9.21561C17.5781 8.5453 17.4656 8.17968 17.3719 7.93593ZM12 15.5391C10.0453 15.5391 8.46094 13.9547 8.46094 12C8.46094 10.0453 10.0453 8.46093 12 8.46093C13.9547 8.46093 15.5391 10.0453 15.5391 12C15.5391 13.9547 13.9547 15.5391 12 15.5391ZM15.6797 9.14999C15.225 9.14999 14.8547 8.77968 14.8547 8.32499C14.8547 7.8703 15.225 7.49999 15.6797 7.49999C16.1344 7.49999 16.5047 7.8703 16.5047 8.32499C16.5047 8.77968 16.1344 9.14999 15.6797 9.14999Z" />
    <path
      d="M12 0C5.37188 0 0 5.37188 0 12C0 18.6281 5.37188 24 12 24C18.6281 24 24 18.6281 24 12C24 5.37188 18.6281 0 12 0ZM18.8484 14.8406C18.8156 15.5719 18.6984 16.0734 18.5297 16.5141C18.1734 17.4375 17.4422 18.1734 16.5141 18.5297C16.0781 18.6984 15.5766 18.8156 14.8406 18.8484C14.1047 18.8813 13.8703 18.8906 12 18.8906C10.1297 18.8906 9.89531 18.8813 9.15937 18.8484C8.42812 18.8156 7.92656 18.6984 7.48594 18.5297C7.02656 18.3562 6.60938 18.0844 6.26719 17.7328C5.91562 17.3906 5.64375 16.9734 5.47031 16.5141C5.30156 16.0781 5.18438 15.5766 5.15156 14.8406C5.11875 14.1047 5.10938 13.8703 5.10938 12C5.10938 10.1297 5.11875 9.89531 5.15156 9.15937C5.18438 8.42812 5.30156 7.92656 5.47031 7.48594C5.64375 7.02656 5.91562 6.60938 6.26719 6.26719C6.60938 5.91562 7.02656 5.64375 7.48594 5.47031C7.92656 5.30156 8.42344 5.18438 9.15937 5.15156C9.89531 5.11875 10.1297 5.10938 12 5.10938C13.8703 5.10938 14.1047 5.11875 14.8406 5.15156C15.5719 5.18438 16.0734 5.30156 16.5141 5.47031C16.9734 5.64375 17.3906 5.91562 17.7328 6.26719C18.0844 6.60938 18.3562 7.02656 18.5297 7.48594C18.6984 7.92656 18.8156 8.42344 18.8484 9.15937C18.8813 9.89531 18.8906 10.1297 18.8906 12C18.8906 13.8703 18.8813 14.1047 18.8484 14.8406Z" />
  </symbol>
  <symbol id="tel" viewBox="0 0 24 24">
    <path
      d="M12 24C18.6281 24 24 18.6281 24 12C24 5.37188 18.6281 0 12 0C5.37188 0 0 5.37188 0 12C0 18.6281 5.37188 24 12 24ZM5.48906 11.7422L17.0625 7.27969C17.6016 7.0875 18.0703 7.41094 17.8922 8.22187L15.9234 17.5031C15.7781 18.1594 15.3844 18.3234 14.8406 18.0094L11.8406 15.7969L10.3922 17.1891C10.2328 17.3484 10.0969 17.4844 9.7875 17.4844L9.99844 14.4328L15.5625 9.4125C15.8062 9.20156 15.5063 9.07969 15.1875 9.29062L8.31562 13.6172L5.35312 12.6937C4.71094 12.4875 4.69688 12.0516 5.48906 11.7422Z" />
  </symbol>
  <symbol id="vk" viewBox="0 0 24 24">
    <path
      d="M12 0C5.37423 0 0 5.37423 0 12C0 18.6258 5.37423 24 12 24C18.6258 24 24 18.6258 24 12C24 5.37423 18.6258 0 12 0ZM18.0859 13.3006C18.6503 13.8405 19.2393 14.3558 19.7301 14.9693C19.9509 15.2393 20.1718 15.5092 20.319 15.8282C20.5399 16.2699 20.3436 16.7607 19.9509 16.7853H17.4969C16.8589 16.8344 16.3681 16.589 15.9264 16.1472C15.5828 15.8037 15.2638 15.4356 14.9448 15.0675C14.8221 14.9202 14.6748 14.773 14.5031 14.6748C14.1595 14.454 13.865 14.5276 13.6933 14.8712C13.4969 15.2393 13.4479 15.6319 13.4233 16.0245C13.3988 16.6135 13.227 16.7607 12.638 16.7853C11.3865 16.8344 10.2086 16.6626 9.12883 16.0245C8.17178 15.4601 7.41104 14.6994 6.77301 13.816C5.49693 12.0982 4.53988 10.2086 3.65644 8.26994C3.46012 7.82822 3.60736 7.60736 4.09816 7.58282C4.90798 7.55828 5.69325 7.55828 6.50307 7.58282C6.82209 7.58282 7.04294 7.77914 7.16564 8.07362C7.60736 9.12883 8.1227 10.1595 8.78528 11.092C8.95705 11.3374 9.15337 11.5828 9.39877 11.7791C9.69325 11.9755 9.88957 11.9018 10.0368 11.5828C10.1104 11.3865 10.1595 11.1656 10.184 10.9448C10.2577 10.2086 10.2577 9.47239 10.135 8.7362C10.0613 8.2454 9.81595 7.95092 9.34969 7.85276C9.10429 7.80368 9.15337 7.73006 9.25153 7.58282C9.44785 7.36196 9.64417 7.21472 10.0123 7.21472H12.7853C13.227 7.31288 13.3252 7.48466 13.3742 7.92638V11.0184C13.3742 11.1902 13.4479 11.7055 13.7669 11.8037C14.0123 11.8773 14.184 11.681 14.3313 11.5337C14.9939 10.8221 15.4601 9.98773 15.9018 9.12883C16.0982 8.7362 16.2454 8.34356 16.4172 7.95092C16.5399 7.65644 16.7117 7.5092 17.0552 7.5092H19.7301C19.8037 7.5092 19.8773 7.5092 19.9755 7.53374C20.4172 7.60736 20.5399 7.80368 20.4172 8.2454C20.1963 8.93251 19.7791 9.52147 19.362 10.0859C18.9202 10.6994 18.4294 11.2883 17.9877 11.9264C17.546 12.5153 17.5706 12.8098 18.0859 13.3006Z" />
  </symbol>
  <symbol id="triangel" viewBox="0 0 37 37">
    <path d="M12.5 1.5L1 35.5L35.5 25L12.5 1.5Z" fill="#E01F3D" stroke="#E01F3D" />
  </symbol>
  <symbol id="check" viewBox="0 0 10 8">
    <path
      d="M9.44954 0.551587C8.80734 -0.184046 7.70642 -0.184046 7.06422 0.459633L3.66973 3.86193L2.93578 3.1263C2.29358 2.48262 1.19266 2.48262 0.550461 3.1263H0.458717C-0.183484 3.76998 -0.183484 4.87343 0.458717 5.5171L2.47707 7.54009C2.84404 7.90791 3.30275 7.99986 3.66973 7.99986C4.12844 7.99986 4.49542 7.81595 4.86239 7.54009L9.44954 2.94239C10.0917 2.29871 10.0917 1.19526 9.44954 0.551587Z"
      fill="#E01F3D" />
  </symbol>
  <use xlink:href="#circles" width="67" height="21" x="0" y="0"></use>
  <use xlink:href="#triangel" width="37" height="37" x="0" y="21"></use>
  <use xlink:href="#check" width="10" height="8" x="37" y="37"></use>
</svg>